HIERARCHY
ROOT Hips
{
	OFFSET 0.000000 0.000000 0.000000
	CHANNELS 6 Xposition Yposition Zposition Zrotation Yrotation Xrotation 
	JOINT LHipJoint
	{
		OFFSET 0.000000 0.000000 0.000000
		CHANNELS 3 Zrotation Yrotation Xrotation
		JOINT LeftUpLeg
		{
			OFFSET 1.363060 -1.794630 0.839290
			CHANNELS 3 Zrotation Yrotation Xrotation
			JOINT LeftLeg
			{
				OFFSET 2.448110 -6.726130 0.000000
				CHANNELS 3 Zrotation Yrotation Xrotation
				JOINT LeftFoot
				{
					OFFSET 2.562200 -7.039590 0.000000
					CHANNELS 3 Zrotation Yrotation Xrotation
					JOINT LeftToeBase
					{
						OFFSET 0.157640 -0.433110 2.322550
						CHANNELS 3 Zrotation Yrotation Xrotation
						End Site
						{
							OFFSET 0.000000 0.000000 0.000000
						}
					}
				}
			}
		}
	}
	JOINT RHipJoint
	{
		OFFSET 0.000000 0.000000 0.000000
		CHANNELS 3 Zrotation Yrotation Xrotation
		JOINT RightUpLeg
		{
			OFFSET -1.305520 -1.794630 0.839290
			CHANNELS 3 Zrotation Yrotation Xrotation
			JOINT RightLeg
			{
				OFFSET -2.542530 -6.985550 0.000000
				CHANNELS 3 Zrotation Yrotation Xrotation
				JOINT RightFoot
				{
					OFFSET -2.568260 -7.056230 0.000000
					CHANNELS 3 Zrotation Yrotation Xrotation
					JOINT RightToeBase
					{
						OFFSET -0.164730 -0.452590 2.363150
						CHANNELS 3 Zrotation Yrotation Xrotation
						End Site
						{
							OFFSET 0.000000 0.000000 0.000000
						}
					}
				}
			}
		}
	}
}
MOTION
Frames: 31
Frame Time: 0.008333
1.715702 17.413051 0.225400 6.686051 -55.715864 -8.491274 -8.216743 3.829279 7.772374 -5.344598 -16.291438 -0.258001 -2.378492 -0.458057 3.209943 -0.167773 0.799904 8.067257 0.609200 -0.000000 -54.776400 12.342774 -3.937066 -1.998011 -5.628952 -32.845497 10.642485 0.290019 0.059707 2.037103 -3.386521 -22.634242 7.728626 -7.090600 0.000000 -67.186300
1.718304 17.419768 0.216669 6.760947 -55.667738 -8.520717 -8.215029 3.810120 7.766206 -5.364565 -16.402668 -0.365023 -2.372084 -0.442400 3.342352 -0.163288 0.864056 8.224456 0.628500 0.000000 -54.891699 12.352496 -3.924530 -2.046043 -5.647407 -33.023013 10.586371 0.299486 0.064330 1.949590 -3.395984 -22.703837 7.761002 -7.126100 0.000000 -66.877799
1.722113 17.424694 0.210028 6.816958 -55.590832 -8.497642 -8.212889 3.784750 7.767611 -5.379312 -16.598881 -0.499916 -2.364288 -0.427052 3.482189 -0.151685 0.980387 8.315807 0.659200 0.000000 -54.935300 12.356610 -3.903177 -2.097472 -5.637831 -33.129006 10.530409 0.305720 0.068144 1.877171 -3.407172 -22.775032 7.782232 -7.160000 -0.000001 -66.649000
1.727111 17.427640 0.205494 6.859097 -55.502539 -8.431838 -8.211029 3.755393 7.774184 -5.389898 -16.850597 -0.654136 -2.355829 -0.413050 3.617503 -0.134354 1.136132 8.344012 0.698000 0.000000 -54.912500 12.355250 -3.874068 -2.147413 -5.601454 -33.154467 10.473094 0.308055 0.071455 1.821161 -3.420071 -22.846293 7.787404 -7.190000 -0.000000 -66.506700
1.732986 17.428542 0.203037 6.889450 -55.421606 -8.333782 -8.207901 3.726347 7.786115 -5.396258 -17.125582 -0.818217 -2.347772 -0.401825 3.735025 -0.113164 1.315248 8.314573 0.741000 0.000000 -54.832800 12.350839 -3.839929 -2.188093 -5.540943 -33.097913 10.412232 0.306510 0.075209 1.781091 -3.433606 -22.911304 7.770211 -7.211400 0.000000 -66.447400
1.739259 17.427350 0.202579 6.907938 -55.367705 -8.213722 -8.200783 3.702757 7.805572 -5.397498 -17.391227 -0.982794 -2.341219 -0.394924 3.821292 -0.090200 1.500552 8.234497 0.783900 0.000000 -54.707600 12.346962 -3.804337 -2.210208 -5.460041 -32.963597 10.345607 0.301671 0.080829 1.753212 -3.446085 -22.961284 7.724597 -7.218200 0.000000 -66.460000
1.745733 17.424126 0.203804 6.916536 -55.358931 -8.082113 -8.189376 3.687298 7.831997 -5.393283 -17.618718 -1.139776 -2.336746 -0.393134 3.864642 -0.067303 1.676505 8.113176 0.822699 -0.000000 -54.550200 12.344837 -3.769148 -2.208986 -5.361404 -32.756912 10.272644 0.294252 0.089366 1.731286 -3.456545 -22.991142 7.646399 -7.207100 -0.000000 -66.530300
1.752228 17.419032 0.206277 6.927718 -55.407144 -7.947977 -8.176912 3.679071 7.859207 -5.385085 -17.786875 -1.282784 -2.334459 -0.396598 3.855524 -0.045849 1.831856 7.962064 0.854900 -0.000000 -54.373000 12.342612 -3.733427 -2.187742 -5.248917 -32.484340 10.193419 0.285259 0.101190 1.708550 -3.464723 -22.998079 7.532172 -7.175600 -0.000000 -66.636100
1.758754 17.412338 0.209493 6.949024 -55.517265 -7.816069 -8.166723 3.676218 7.880572 -5.373782 -17.881704 -1.408327 -2.334178 -0.405204 3.789178 -0.026944 1.958673 7.792218 0.878600 0.000000 -54.187700 12.338382 -3.696497 -2.151547 -5.125248 -32.154650 10.108813 0.275791 0.116432 1.677047 -3.470729 -22.982331 7.381529 -7.123900 -0.000000 -66.757200
1.765375 17.404282 0.212973 6.982217 -55.688659 -7.688882 -8.160410 3.677296 7.892328 -5.359196 -17.897193 -1.516299 -2.335723 -0.418678 3.666506 -0.011512 2.051233 7.613282 0.893000 0.000000 -54.004500 12.331672 -3.658688 -2.104005 -4.991847 -31.779616 10.019879 0.266867 0.135311 1.627985 -3.474848 -22.946547 7.196700 -7.053400 -0.000000 -66.878100
1.771800 17.395226 0.216440 7.026210 -55.915883 -7.561877 -8.158425 3.681716 7.893834 -5.338485 -17.832295 -1.613957 -2.338678 -0.436688 3.496050 -0.000382 2.104175 7.431338 0.897400 0.000000 -53.831599 12.322945 -3.621621 -2.045779 -4.844969 -31.368828 9.924195 0.259301 0.158331 1.552606 -3.478202 -22.899419 6.983029 -6.969500 0.000000 -66.987000
1.778204 17.385356 0.219351 7.083568 -56.189123 -7.442212 -8.159017 3.687737 7.886135 -5.316244 -17.708719 -1.694911 -2.343092 -0.458613 3.279061 0.007732 2.133059 7.255456 0.896099 -0.000000 -53.673400 12.313529 -3.584217 -1.983255 -4.696770 -30.946523 9.826755 0.254382 0.185218 1.449984 -3.479438 -22.832933 6.737463 -6.867599 -0.000000 -67.063800
1.784438 17.375004 0.221498 7.149783 -56.495566 -7.322469 -8.161560 3.694517 7.871759 -5.289546 -17.540409 -1.772407 -2.348221 -0.483453 3.033623 0.013119 2.140457 7.086290 0.890100 0.000000 -53.530300 12.304161 -3.547751 -1.917149 -4.542138 -30.522239 9.725025 0.252265 0.216212 1.314034 -3.480247 -22.760441 6.471022 -6.756600 0.000000 -67.103000
1.790715 17.364441 0.222727 7.219807 -56.820622 -7.198801 -8.164902 3.700589 7.853691 -5.258070 -17.350316 -1.855790 -2.353340 -0.509930 2.776854 0.017073 2.137663 6.923460 0.882000 0.000000 -53.401100 12.295457 -3.511941 -1.850383 -4.381261 -30.108690 9.618560 0.253279 0.251351 1.142831 -3.481472 -22.688162 6.186846 -6.639701 0.000000 -67.101201
1.796966 17.353863 0.222911 7.293113 -57.148815 -7.066998 -8.167643 3.704742 7.835446 -5.222130 -17.164297 -1.955140 -2.357771 -0.536797 2.527230 0.021200 2.137920 6.763900 0.874900 0.000000 -53.280200 12.288115 -3.476380 -1.785854 -4.214753 -29.717186 9.506723 0.257374 0.290426 0.936976 -3.484030 -22.623140 5.891513 -6.521200 0.000000 -67.055400
1.803551 17.343408 0.221945 7.366285 -57.465696 -6.926111 -8.168404 3.705289 7.819783 -5.183682 -17.010639 -2.075416 -2.360821 -0.562629 2.299983 0.027613 2.158378 6.603774 0.872400 0.000000 -53.159499 12.282420 -3.439713 -1.727803 -4.045610 -29.357342 9.393536 0.264130 0.333071 0.695279 -3.488579 -22.570835 5.591593 -6.405299 -0.000000 -66.972700
1.810439 17.333321 0.220228 7.432346 -57.759266 -6.762754 -8.167199 3.701937 7.810418 -5.138233 -16.898907 -2.240706 -2.361548 -0.586384 2.122616 0.036660 2.198355 6.432858 0.873599 0.000000 -53.032000 12.278369 -3.402712 -1.674293 -3.865885 -29.032130 9.262821 0.273953 0.378683 0.433934 -3.496173 -22.536840 5.287831 -6.293399 -0.000000 -66.836000
1.817958 17.323536 0.217521 7.495343 -58.019890 -6.586059 -8.162201 3.692959 7.807874 -5.091671 -16.860527 -2.437400 -2.359655 -0.606900 1.994579 0.051294 2.282740 6.250412 0.883800 -0.000000 -52.888400 12.276076 -3.362729 -1.632603 -3.686198 -28.747631 9.134419 0.285378 0.426800 0.141559 -3.506806 -22.524003 4.991851 -6.190700 0.000000 -66.674100
1.826233 17.314207 0.214379 7.546665 -58.242685 -6.384916 -8.154270 3.678525 7.813955 -5.039553 -16.890955 -2.684696 -2.354547 -0.623623 1.935323 0.070980 2.402807 6.047910 0.900200 0.000000 -52.724600 12.275083 -3.320696 -1.599824 -3.500396 -28.503933 8.991055 0.299243 0.476501 -0.160600 -3.520185 -22.528715 4.699630 -6.093900 0.000000 -66.470400
1.835334 17.305337 0.210972 7.586410 -58.426160 -6.160550 -8.143534 3.658444 7.828045 -4.981950 -16.993604 -2.978390 -2.346012 -0.636183 1.944451 0.096353 2.562035 5.824478 0.923000 -0.000000 -52.537100 12.274884 -3.276191 -1.577321 -3.310604 -28.298528 8.837338 0.314957 0.527082 -0.470753 -3.535934 -22.549919 4.417392 -6.004800 0.000000 -66.238100
1.845321 17.296978 0.207625 7.612827 -58.573519 -5.912844 -8.131068 3.633029 7.848727 -4.917696 -17.159049 -3.316172 -2.334022 -0.644572 2.019959 0.126921 2.754243 5.580172 0.950299 0.000000 -52.326500 12.274605 -3.229550 -1.564500 -3.117186 -28.127556 8.672037 0.332578 0.577718 -0.780880 -3.553054 -22.581672 4.146588 -5.921900 0.000000 -65.979400
1.856194 17.289187 0.204693 7.623101 -58.691019 -5.640786 -8.118684 3.603148 7.873733 -4.844228 -17.366549 -3.696148 -2.318777 -0.649137 2.155868 0.161093 2.965214 5.319093 0.979000 0.000001 -52.098600 12.273199 -3.182074 -1.558661 -2.917984 -27.983275 8.491526 0.352175 0.627575 -1.082553 -3.570664 -22.619081 3.890122 -5.844900 -0.000000 -65.700200
1.868191 17.281931 0.202179 7.618619 -58.787133 -5.353562 -8.107395 3.568717 7.899398 -4.763017 -17.612486 -4.094851 -2.300382 -0.650132 2.329902 0.199227 3.198842 5.048969 1.009900 0.000000 -51.853500 12.269174 -3.133189 -1.562102 -2.717166 -27.855129 8.314626 0.372267 0.676363 -1.389819 -3.588524 -22.664325 3.660536 -5.779700 0.000000 -65.438000
1.881001 17.275425 0.200653 7.595814 -58.873184 -5.046128 -8.100295 3.532113 7.923232 -4.671046 -17.849012 -4.520878 -2.279761 -0.648809 2.538381 0.236956 3.420571 4.776703 1.036100 -0.000000 -51.608101 12.261813 -3.086041 -1.566998 -2.510168 -27.739145 8.116348 0.394998 0.722705 -1.670106 -3.603876 -22.696952 3.444709 -5.714800 0.000000 -65.147800
1.894667 17.269621 0.199828 7.562844 -58.958620 -4.733186 -8.097660 3.493512 7.941536 -4.572528 -18.079072 -4.941013 -2.257282 -0.645740 2.748921 0.275127 3.641454 4.514694 1.061000 -0.000000 -51.361700 12.250058 -3.039719 -1.576665 -2.303407 -27.622885 7.925280 0.417908 0.766870 -1.950183 -3.617268 -22.726079 3.261560 -5.661100 0.000000 -64.885000
1.909039 17.264772 0.200126 7.515155 -59.055270 -4.412200 -8.102402 3.455009 7.951566 -4.466839 -18.256348 -5.360661 -2.234069 -0.642273 2.954909 0.309377 3.829758 4.271053 1.079001 0.000000 -51.132100 12.233305 -2.997127 -1.583208 -2.092343 -27.499874 7.720270 0.442508 0.807829 -2.204991 -3.626883 -22.737472 3.100564 -5.610400 -0.000001 -64.619800
1.924113 17.260820 0.201214 7.461071 -59.170249 -4.097158 -8.114185 3.417137 7.950972 -4.360220 -18.382746 -5.753083 -2.210729 -0.639041 3.129975 0.340254 3.994945 4.056970 1.093400 -0.000000 -50.919000 12.211424 -2.957348 -1.589070 -1.884488 -27.364019 7.521117 0.467106 0.845670 -2.450205 -3.632708 -22.734847 2.972387 -5.568400 -0.000001 -64.372300
1.939735 17.257913 0.203048 7.404135 -59.311047 -3.793875 -8.133635 3.381189 7.938355 -4.256288 -18.440462 -6.111840 -2.188193 -0.636907 3.263091 0.366076 4.127384 3.879157 1.103400 -0.000000 -50.729600 12.184690 -2.921106 -1.591383 -1.681769 -27.211480 7.325810 0.491608 0.880302 -2.682202 -3.634255 -22.714740 2.874179 -5.533200 0.000000 -64.144500
1.955785 17.256029 0.205497 7.349519 -59.481410 -3.509474 -8.160433 3.348050 7.913013 -4.159881 -18.423272 -6.428446 -2.167175 -0.636370 3.344732 0.386306 4.226071 3.743146 1.109900 -0.000000 -50.565999 12.153733 -2.888395 -1.589216 -1.487481 -27.039765 7.137672 0.515404 0.911753 -2.902187 -3.631595 -22.677803 2.805928 -5.505199 -0.000000 -63.933799
1.972209 17.255174 0.208408 7.301687 -59.683641 -3.250779 -8.193831 3.318369 7.874996 -4.075683 -18.329245 -6.698065 -2.148285 -0.637643 3.370877 0.400780 4.291487 3.650853 1.113500 0.000000 -50.428600 12.119454 -2.858832 -1.582128 -1.305544 -26.848883 6.959614 0.538018 0.940241 -3.111546 -3.624805 -22.624290 2.765263 -5.483500 -0.000000 -63.739401
1.988970 17.255245 0.211500 7.266908 -59.917052 -3.025550 -8.232348 3.292587 7.824995 -4.008387 -18.165083 -6.915779 -2.131932 -0.640573 3.340479 0.410145 4.329330 3.602313 1.115500 -0.000001 -50.314300 12.083103 -2.831543 -1.571034 -1.140753 -26.640244 6.798816 0.558612 0.966229 -3.316648 -3.614382 -22.557794 2.752107 -5.469200 -0.000000 -63.565700
